<?xml version="1.0" encoding="UTF-8" standalone="no"?>
<!DOCTYPE svg PUBLIC "-//W3C//DTD SVG 1.1//EN"
 "http://www.w3.org/Graphics/SVG/1.1/DTD/svg11.dtd">
<!-- Generated by graphviz version 2.43.0 (0)
 -->
<!-- Title: %3 Pages: 1 -->
<svg width="1135pt" height="332pt"
 viewBox="0.00 0.00 1134.99 332.00" xmlns="http://www.w3.org/2000/svg" xmlns:xlink="http://www.w3.org/1999/xlink">
<g id="graph0" class="graph" transform="scale(1 1) rotate(0) translate(4 328)">
<title>%3</title>
<polygon fill="white" stroke="transparent" points="-4,4 -4,-328 1130.99,-328 1130.99,4 -4,4"/>
<!-- [root] google_compute_instance.default -->
<g id="node1" class="node">
<title>[root] google_compute_instance.default</title>
<polygon fill="none" stroke="black" points="355.5,-180 101.5,-180 101.5,-144 355.5,-144 355.5,-180"/>
<text text-anchor="middle" x="228.5" y="-158.3" font-family="Times,serif" font-size="14.00">google_compute_instance.default</text>
</g>
<!-- [root] provider.google -->
<g id="node2" class="node">
<title>[root] provider.google</title>
<polygon fill="none" stroke="black" points="228.5,-108 110.7,-90 228.5,-72 346.3,-90 228.5,-108"/>
<text text-anchor="middle" x="228.5" y="-86.3" font-family="Times,serif" font-size="14.00">provider.google</text>
</g>
<!-- [root] google_compute_instance.default&#45;&gt;[root] provider.google -->
<g id="edge1" class="edge">
<title>[root] google_compute_instance.default&#45;&gt;[root] provider.google</title>
<path fill="none" stroke="black" d="M228.5,-143.7C228.5,-135.98 228.5,-126.71 228.5,-118.11"/>
<polygon fill="black" stroke="black" points="232,-118.1 228.5,-108.1 225,-118.1 232,-118.1"/>
</g>
<!-- [root] random_id.instance_id -->
<g id="node4" class="node">
<title>[root] random_id.instance_id</title>
<polygon fill="none" stroke="black" points="843.5,-108 667.5,-108 667.5,-72 843.5,-72 843.5,-108"/>
<text text-anchor="middle" x="755.5" y="-86.3" font-family="Times,serif" font-size="14.00">random_id.instance_id</text>
</g>
<!-- [root] google_compute_instance.default&#45;&gt;[root] random_id.instance_id -->
<g id="edge2" class="edge">
<title>[root] google_compute_instance.default&#45;&gt;[root] random_id.instance_id</title>
<path fill="none" stroke="black" d="M355.74,-144.1C448.47,-131.78 572.27,-115.34 657.4,-104.03"/>
<polygon fill="black" stroke="black" points="657.87,-107.5 667.32,-102.71 656.95,-100.56 657.87,-107.5"/>
</g>
<!-- [root] var.account_file -->
<g id="node5" class="node">
<title>[root] var.account_file</title>
<polygon fill="none" stroke="black" points="121,-36 0,-36 0,0 127,0 127,-30 121,-36"/>
<polyline fill="none" stroke="black" points="121,-36 121,-30 "/>
<polyline fill="none" stroke="black" points="127,-30 121,-30 "/>
<text text-anchor="middle" x="63.5" y="-14.3" font-family="Times,serif" font-size="14.00">var.account_file</text>
</g>
<!-- [root] provider.google&#45;&gt;[root] var.account_file -->
<g id="edge8" class="edge">
<title>[root] provider.google&#45;&gt;[root] var.account_file</title>
<path fill="none" stroke="black" d="M199,-76.49C175.1,-66.35 140.91,-51.84 112.85,-39.94"/>
<polygon fill="black" stroke="black" points="114.16,-36.69 103.59,-36.01 111.43,-43.14 114.16,-36.69"/>
</g>
<!-- [root] var.google_project_id -->
<g id="node7" class="node">
<title>[root] var.google_project_id</title>
<polygon fill="none" stroke="black" points="306,-36 145,-36 145,0 312,0 312,-30 306,-36"/>
<polyline fill="none" stroke="black" points="306,-36 306,-30 "/>
<polyline fill="none" stroke="black" points="312,-30 306,-30 "/>
<text text-anchor="middle" x="228.5" y="-14.3" font-family="Times,serif" font-size="14.00">var.google_project_id</text>
</g>
<!-- [root] provider.google&#45;&gt;[root] var.google_project_id -->
<g id="edge9" class="edge">
<title>[root] provider.google&#45;&gt;[root] var.google_project_id</title>
<path fill="none" stroke="black" d="M228.5,-71.7C228.5,-63.98 228.5,-54.71 228.5,-46.11"/>
<polygon fill="black" stroke="black" points="232,-46.1 228.5,-36.1 225,-46.1 232,-46.1"/>
</g>
<!-- [root] var.region -->
<g id="node10" class="node">
<title>[root] var.region</title>
<polygon fill="none" stroke="black" points="413,-36 330,-36 330,0 419,0 419,-30 413,-36"/>
<polyline fill="none" stroke="black" points="413,-36 413,-30 "/>
<polyline fill="none" stroke="black" points="419,-30 413,-30 "/>
<text text-anchor="middle" x="374.5" y="-14.3" font-family="Times,serif" font-size="14.00">var.region</text>
</g>
<!-- [root] provider.google&#45;&gt;[root] var.region -->
<g id="edge10" class="edge">
<title>[root] provider.google&#45;&gt;[root] var.region</title>
<path fill="none" stroke="black" d="M255.62,-76C276.46,-66.01 305.69,-51.99 329.95,-40.36"/>
<polygon fill="black" stroke="black" points="331.47,-43.51 338.98,-36.03 328.45,-37.2 331.47,-43.51"/>
</g>
<!-- [root] provider.random -->
<g id="node3" class="node">
<title>[root] provider.random</title>
<polygon fill="none" stroke="black" points="755.5,-36 631.33,-18 755.5,0 879.67,-18 755.5,-36"/>
<text text-anchor="middle" x="755.5" y="-14.3" font-family="Times,serif" font-size="14.00">provider.random</text>
</g>
<!-- [root] random_id.instance_id&#45;&gt;[root] provider.random -->
<g id="edge12" class="edge">
<title>[root] random_id.instance_id&#45;&gt;[root] provider.random</title>
<path fill="none" stroke="black" d="M755.5,-71.7C755.5,-63.98 755.5,-54.71 755.5,-46.11"/>
<polygon fill="black" stroke="black" points="759,-46.1 755.5,-36.1 752,-46.1 759,-46.1"/>
</g>
<!-- [root] var.credentials_file_path -->
<g id="node6" class="node">
<title>[root] var.credentials_file_path</title>
<polygon fill="none" stroke="black" points="557.5,-180 373.5,-180 373.5,-144 563.5,-144 563.5,-174 557.5,-180"/>
<polyline fill="none" stroke="black" points="557.5,-180 557.5,-174 "/>
<polyline fill="none" stroke="black" points="563.5,-174 557.5,-174 "/>
<text text-anchor="middle" x="468.5" y="-158.3" font-family="Times,serif" font-size="14.00">var.credentials_file_path</text>
</g>
<!-- [root] var.private_key_path -->
<g id="node8" class="node">
<title>[root] var.private_key_path</title>
<polygon fill="none" stroke="black" points="739.5,-180 581.5,-180 581.5,-144 745.5,-144 745.5,-174 739.5,-180"/>
<polyline fill="none" stroke="black" points="739.5,-180 739.5,-174 "/>
<polyline fill="none" stroke="black" points="745.5,-174 739.5,-174 "/>
<text text-anchor="middle" x="663.5" y="-158.3" font-family="Times,serif" font-size="14.00">var.private_key_path</text>
</g>
<!-- [root] var.public_key_path -->
<g id="node9" class="node">
<title>[root] var.public_key_path</title>
<polygon fill="none" stroke="black" points="915,-180 764,-180 764,-144 921,-144 921,-174 915,-180"/>
<polyline fill="none" stroke="black" points="915,-180 915,-174 "/>
<polyline fill="none" stroke="black" points="921,-174 915,-174 "/>
<text text-anchor="middle" x="842.5" y="-158.3" font-family="Times,serif" font-size="14.00">var.public_key_path</text>
</g>
<!-- [root] meta.count&#45;boundary (EachMode fixup) -->
<g id="node11" class="node">
<title>[root] meta.count&#45;boundary (EachMode fixup)</title>
<ellipse fill="none" stroke="black" cx="587.5" cy="-234" rx="222.86" ry="18"/>
<text text-anchor="middle" x="587.5" y="-230.3" font-family="Times,serif" font-size="14.00">[root] meta.count&#45;boundary (EachMode fixup)</text>
</g>
<!-- [root] meta.count&#45;boundary (EachMode fixup)&#45;&gt;[root] google_compute_instance.default -->
<g id="edge3" class="edge">
<title>[root] meta.count&#45;boundary (EachMode fixup)&#45;&gt;[root] google_compute_instance.default</title>
<path fill="none" stroke="black" d="M506.49,-217.2C452.93,-206.76 382.44,-193.02 325.85,-181.98"/>
<polygon fill="black" stroke="black" points="326.29,-178.5 315.81,-180.02 324.95,-185.37 326.29,-178.5"/>
</g>
<!-- [root] meta.count&#45;boundary (EachMode fixup)&#45;&gt;[root] var.credentials_file_path -->
<g id="edge4" class="edge">
<title>[root] meta.count&#45;boundary (EachMode fixup)&#45;&gt;[root] var.credentials_file_path</title>
<path fill="none" stroke="black" d="M558.69,-216.05C543.02,-206.84 523.44,-195.32 506.53,-185.37"/>
<polygon fill="black" stroke="black" points="507.85,-182.09 497.45,-180.03 504.3,-188.12 507.85,-182.09"/>
</g>
<!-- [root] meta.count&#45;boundary (EachMode fixup)&#45;&gt;[root] var.private_key_path -->
<g id="edge5" class="edge">
<title>[root] meta.count&#45;boundary (EachMode fixup)&#45;&gt;[root] var.private_key_path</title>
<path fill="none" stroke="black" d="M605.9,-216.05C615.35,-207.35 627.03,-196.59 637.4,-187.04"/>
<polygon fill="black" stroke="black" points="640.02,-189.38 645.01,-180.03 635.28,-184.23 640.02,-189.38"/>
</g>
<!-- [root] meta.count&#45;boundary (EachMode fixup)&#45;&gt;[root] var.public_key_path -->
<g id="edge6" class="edge">
<title>[root] meta.count&#45;boundary (EachMode fixup)&#45;&gt;[root] var.public_key_path</title>
<path fill="none" stroke="black" d="M647.29,-216.59C684.2,-206.46 731.78,-193.39 770.72,-182.7"/>
<polygon fill="black" stroke="black" points="771.71,-186.06 780.43,-180.04 769.86,-179.31 771.71,-186.06"/>
</g>
<!-- [root] provider.google (close) -->
<g id="node12" class="node">
<title>[root] provider.google (close)</title>
<ellipse fill="none" stroke="black" cx="201.5" cy="-234" rx="144.87" ry="18"/>
<text text-anchor="middle" x="201.5" y="-230.3" font-family="Times,serif" font-size="14.00">[root] provider.google (close)</text>
</g>
<!-- [root] provider.google (close)&#45;&gt;[root] google_compute_instance.default -->
<g id="edge7" class="edge">
<title>[root] provider.google (close)&#45;&gt;[root] google_compute_instance.default</title>
<path fill="none" stroke="black" d="M208.17,-215.7C211.21,-207.81 214.88,-198.3 218.26,-189.55"/>
<polygon fill="black" stroke="black" points="221.57,-190.69 221.9,-180.1 215.04,-188.17 221.57,-190.69"/>
</g>
<!-- [root] provider.random (close) -->
<g id="node13" class="node">
<title>[root] provider.random (close)</title>
<ellipse fill="none" stroke="black" cx="977.5" cy="-234" rx="149.47" ry="18"/>
<text text-anchor="middle" x="977.5" y="-230.3" font-family="Times,serif" font-size="14.00">[root] provider.random (close)</text>
</g>
<!-- [root] provider.random (close)&#45;&gt;[root] random_id.instance_id -->
<g id="edge11" class="edge">
<title>[root] provider.random (close)&#45;&gt;[root] random_id.instance_id</title>
<path fill="none" stroke="black" d="M972.8,-215.66C966.47,-195.56 953.28,-162.79 930.5,-144 908.58,-125.92 880.59,-114.01 853.46,-106.16"/>
<polygon fill="black" stroke="black" points="854.09,-102.7 843.52,-103.44 852.24,-109.45 854.09,-102.7"/>
</g>
<!-- [root] root -->
<g id="node14" class="node">
<title>[root] root</title>
<ellipse fill="none" stroke="black" cx="587.5" cy="-306" rx="58.49" ry="18"/>
<text text-anchor="middle" x="587.5" y="-302.3" font-family="Times,serif" font-size="14.00">[root] root</text>
</g>
<!-- [root] root&#45;&gt;[root] meta.count&#45;boundary (EachMode fixup) -->
<g id="edge13" class="edge">
<title>[root] root&#45;&gt;[root] meta.count&#45;boundary (EachMode fixup)</title>
<path fill="none" stroke="black" d="M587.5,-287.7C587.5,-279.98 587.5,-270.71 587.5,-262.11"/>
<polygon fill="black" stroke="black" points="591,-262.1 587.5,-252.1 584,-262.1 591,-262.1"/>
</g>
<!-- [root] root&#45;&gt;[root] provider.google (close) -->
<g id="edge14" class="edge">
<title>[root] root&#45;&gt;[root] provider.google (close)</title>
<path fill="none" stroke="black" d="M538.22,-296.06C475.78,-284.74 367.05,-265.02 290.05,-251.06"/>
<polygon fill="black" stroke="black" points="290.34,-247.55 279.88,-249.21 289.09,-254.44 290.34,-247.55"/>
</g>
<!-- [root] root&#45;&gt;[root] provider.random (close) -->
<g id="edge15" class="edge">
<title>[root] root&#45;&gt;[root] provider.random (close)</title>
<path fill="none" stroke="black" d="M636.89,-296.13C699.76,-284.85 809.55,-265.15 887.47,-251.16"/>
<polygon fill="black" stroke="black" points="888.54,-254.52 897.77,-249.31 887.31,-247.63 888.54,-254.52"/>
</g>
</g>
</svg>
